# xmcd
#
# Track frame offsets: 
#        150
#        16222
#        31612
#        46387
#        60377
#        83550
#        108425
#        121800
#        143480
#        158072
#
# Disc length: 2289 seconds
#
# Revision: 0
# Processed by: cddbd v1.5.2PL0 Copyright (c) Steve Scherf et al.
# Submitted via: ExactAudioCopy v0.99pb5
#
DISCID=6808ef0a
DTITLE=The Chi-Lites - Chi-Lites
DYEAR=1973
DGENRE=R&B
TTITLE0=Homely Girl
TTITLE1=Go Away Dream
TTITLE2=Too Good To Be Forgotten
TTITLE3=I Found Sunshine
TTITLE4=I Never Had It So Good
TTITLE5=Marriage License
TTITLE6=I Forgot To Say I Love You Till I'm Gone
TTITLE7=One Man Band (Plays Alone)
TTITLE8=Bet You'll Never Be Sorry
TTITLE9=Stoned Out Of My Mind
EXTD=
EXTT0=
EXTT1=
EXTT2=
EXTT3=
EXTT4=
EXTT5=
EXTT6=
EXTT7=
EXTT8=
EXTT9=
PLAYORDER=
